# xmcd CD database file
#
# Track frame offsets:
#	182
#	27800
#	52305
#	75240
#	103115
#	126235
#	144140
#	167225
#	191265
#	206280
#	217550
#	229875
#	260622
#
# Disc length: 3710 seconds
#
# Revision: 0
# Processed by: cddbd v1.5.2PL0 Copyright (c) Steve Scherf et al.
# Submitted via: CDex 1.70beta2
#
DISCID=a80e7c0d
DTITLE=Various Artist - Jazz After Hours
DYEAR=1995
DGENRE=Jazz
TTITLE0=Larry Gales - 'Round Midnight
TTITLE1=Ben Webster - Over The Rainbow
TTITLE2=Illinois Jaquet - I Don't Stand A Ghost Of A Chance
TTITLE3=Shirley Scott - Autumn Leaves
TTITLE4=Harry Edinson - Willow Weep For Me
TTITLE5=Dizzy Gillespie - I Can't Get Started
TTITLE6=Duke Ellington - Passion Flower
TTITLE7=Don Byas - Tenderly
TTITLE8=Coleman Hawkins - Body And Soul
TTITLE9=Roy Eldridge - Embraceable You
TTITLE10=Earl Hines - Deep Forest
TTITLE11=Lucky Thompson - You've Changed
TTITLE12=Milt Buckner - Mighty Low
EXTD=YEAR: 1995
EXTT0=
EXTT1=
EXTT2=
EXTT3=
EXTT4=
EXTT5=
EXTT6=
EXTT7=
EXTT8=
EXTT9=
EXTT10=
EXTT11=
EXTT12=
PLAYORDER=
